<svg width="334" height="192" viewBox="0 0 334 192" fill="none" xmlns="http://www.w3.org/2000/svg">
<path d="M45.6875 35.8125C45.6875 42 43.8333 46.875 40.125 50.4375C36.4375 54 31.3333 55.7812 24.8125 55.7812C17.625 55.7812 12.0312 53.75 8.03125 49.6875C4.03125 45.625 2.03125 39.8646 2.03125 32.4062C2.03125 25.0521 4.01042 19.3333 7.96875 15.25C11.9271 11.1667 17.4062 9.125 24.4062 9.125C30.0312 9.125 34.7708 10.6146 38.625 13.5938C42.4792 16.5729 44.6562 20.3854 45.1562 25.0312H32.125C31.6875 23.3646 30.7708 22.0417 29.375 21.0625C28 20.0625 26.3646 19.5625 24.4688 19.5625C21.6562 19.5625 19.4583 20.6771 17.875 22.9062C16.3125 25.1146 15.5312 28.2188 15.5312 32.2188C15.5312 36.3021 16.3958 39.5104 18.125 41.8438C19.8542 44.1771 22.1875 45.3438 25.125 45.3438C27.2708 45.3438 29.0521 44.7917 30.4688 43.6875C31.8854 42.5833 32.6875 41.125 32.875 39.3125L32.9375 38.6875H26.0625V29.875H45.6875V35.8125ZM70.0625 56.25C63.9375 56.25 59.0938 54.125 55.5312 49.875C51.9688 45.6042 50.1875 39.7604 50.1875 32.3438C50.1875 24.9062 51.9688 19.0938 55.5312 14.9062C59.1146 10.7188 63.9583 8.625 70.0625 8.625C76.1667 8.625 81 10.7188 84.5625 14.9062C88.125 19.0729 89.9062 24.875 89.9062 32.3125C89.9062 39.7292 88.125 45.5729 84.5625 49.8438C81 54.1146 76.1667 56.25 70.0625 56.25ZM65.4375 42.5625C66.6042 44.8958 68.1458 46.0625 70.0625 46.0625C71.9792 46.0625 73.5104 44.8958 74.6562 42.5625C75.8229 40.2292 76.4062 36.8229 76.4062 32.3438C76.4062 27.8646 75.8333 24.4896 74.6875 22.2188C73.5417 19.9479 72 18.8125 70.0625 18.8125C68.125 18.8125 66.5729 19.9479 65.4062 22.2188C64.2604 24.4896 63.6875 27.8646 63.6875 32.3438C63.6875 36.8229 64.2708 40.2292 65.4375 42.5625ZM114.562 56.25C108.438 56.25 103.594 54.125 100.031 49.875C96.4688 45.6042 94.6875 39.7604 94.6875 32.3438C94.6875 24.9062 96.4688 19.0938 100.031 14.9062C103.615 10.7188 108.458 8.625 114.562 8.625C120.667 8.625 125.5 10.7188 129.062 14.9062C132.625 19.0729 134.406 24.875 134.406 32.3125C134.406 39.7292 132.625 45.5729 129.062 49.8438C125.5 54.1146 120.667 56.25 114.562 56.25ZM109.938 42.5625C111.104 44.8958 112.646 46.0625 114.562 46.0625C116.479 46.0625 118.01 44.8958 119.156 42.5625C120.323 40.2292 120.906 36.8229 120.906 32.3438C120.906 27.8646 120.333 24.4896 119.188 22.2188C118.042 19.9479 116.5 18.8125 114.562 18.8125C112.625 18.8125 111.073 19.9479 109.906 22.2188C108.76 24.4896 108.188 27.8646 108.188 32.3438C108.188 36.8229 108.771 40.2292 109.938 42.5625ZM139.938 9.90625H159.219C166.115 9.90625 171.458 11.8229 175.25 15.6562C179.042 19.4688 180.938 24.9583 180.938 32.125C180.938 39.3333 179.021 44.9479 175.188 48.9688C171.375 52.9896 166.052 55 159.219 55H139.938V9.90625ZM153.188 20.4375V44.4688H157.344C164.073 44.4688 167.438 40.3542 167.438 32.125C167.438 28.3542 166.552 25.4688 164.781 23.4688C163.031 21.4479 160.552 20.4375 157.344 20.4375H153.188ZM54.1562 119H42.5938V92.875H42.3438L32.1875 118.469H25.0938L14.9375 92.875H14.6875V119H3.125V73.9062H18.4375L28.5312 100.219H28.7812L38.8438 73.9062H54.1562V119ZM79.5625 120.25C73.4375 120.25 68.5938 118.125 65.0312 113.875C61.4688 109.604 59.6875 103.76 59.6875 96.3438C59.6875 88.9062 61.4688 83.0938 65.0312 78.9062C68.6146 74.7188 73.4583 72.625 79.5625 72.625C85.6667 72.625 90.5 74.7188 94.0625 78.9062C97.625 83.0729 99.4062 88.875 99.4062 96.3125C99.4062 103.729 97.625 109.573 94.0625 113.844C90.5 118.115 85.6667 120.25 79.5625 120.25ZM74.9375 106.562C76.1042 108.896 77.6458 110.062 79.5625 110.062C81.4792 110.062 83.0104 108.896 84.1562 106.562C85.3229 104.229 85.9062 100.823 85.9062 96.3438C85.9062 91.8646 85.3333 88.4896 84.1875 86.2188C83.0417 83.9479 81.5 82.8125 79.5625 82.8125C77.625 82.8125 76.0729 83.9479 74.9062 86.2188C73.7604 88.4896 73.1875 91.8646 73.1875 96.3438C73.1875 100.823 73.7708 104.229 74.9375 106.562ZM118.188 83.6875V95.125H123.656C125.51 95.125 126.969 94.6042 128.031 93.5625C129.115 92.5208 129.656 91.1458 129.656 89.4375C129.656 87.75 129.104 86.375 128 85.3125C126.896 84.2292 125.458 83.6875 123.688 83.6875H118.188ZM118.188 103.875V119H104.938V73.9062H124.969C130.927 73.9062 135.448 75.2396 138.531 77.9062C141.635 80.5729 143.188 84.3438 143.188 89.2188C143.188 91.9479 142.542 94.4688 141.25 96.7812C139.979 99.0938 138.198 100.802 135.906 101.906L144.469 119H129.656L122.531 103.875H118.188ZM161.062 119H148.562V73.9062H158.844L176.25 97.2812H176.5V73.9062H189V119H178.844L161.312 95.25H161.062V119ZM206.188 119V85.25H205.938L194.875 92.5625V81.4688L206.188 73.9062H219.438V119H206.188ZM240.812 119H228.312V73.9062H238.594L256 97.2812H256.25V73.9062H268.75V119H258.594L241.062 95.25H240.812V119ZM317.562 99.8125C317.562 106 315.708 110.875 312 114.438C308.312 118 303.208 119.781 296.688 119.781C289.5 119.781 283.906 117.75 279.906 113.688C275.906 109.625 273.906 103.865 273.906 96.4062C273.906 89.0521 275.885 83.3333 279.844 79.25C283.802 75.1667 289.281 73.125 296.281 73.125C301.906 73.125 306.646 74.6146 310.5 77.5938C314.354 80.5729 316.531 84.3854 317.031 89.0312H304C303.562 87.3646 302.646 86.0417 301.25 85.0625C299.875 84.0625 298.24 83.5625 296.344 83.5625C293.531 83.5625 291.333 84.6771 289.75 86.9062C288.188 89.1146 287.406 92.2188 287.406 96.2188C287.406 100.302 288.271 103.51 290 105.844C291.729 108.177 294.062 109.344 297 109.344C299.146 109.344 300.927 108.792 302.344 107.688C303.76 106.583 304.562 105.125 304.75 103.312L304.812 102.688H297.938V93.875H317.562V99.8125ZM45.5 183H32.25V165.562H16.375V183H3.125V137.906H16.375V155.031H32.25V137.906H45.5V183ZM73.1875 183V176.312H51V165.344C54.8125 157.885 60.2708 148.74 67.375 137.906H85.6875V166.156H91.0625V176.312H85.6875V183H73.1875ZM62 166.312V166.688H73.5625V146.594H73.3125C70.6875 150.635 68.5729 154.031 66.9688 156.781C65.3646 159.51 63.7083 162.688 62 166.312ZM109.5 147.688V159.125H114.969C116.823 159.125 118.281 158.604 119.344 157.562C120.427 156.521 120.969 155.146 120.969 153.438C120.969 151.75 120.417 150.375 119.312 149.312C118.208 148.229 116.771 147.688 115 147.688H109.5ZM109.5 167.875V183H96.25V137.906H116.281C122.24 137.906 126.76 139.24 129.844 141.906C132.948 144.573 134.5 148.344 134.5 153.219C134.5 155.948 133.854 158.469 132.562 160.781C131.292 163.094 129.51 164.802 127.219 165.906L135.781 183H120.969L113.844 167.875H109.5ZM167.906 157.188L161.188 183H148.688L137.062 137.906H150.75L155.938 166.406H156.188L162.906 137.906H173.156L179.875 166.406H180.125L185.312 137.906H199L187.375 183H174.875L168.156 157.188H167.906ZM220.625 184.25C214.5 184.25 209.656 182.125 206.094 177.875C202.531 173.604 200.75 167.76 200.75 160.344C200.75 152.906 202.531 147.094 206.094 142.906C209.677 138.719 214.521 136.625 220.625 136.625C226.729 136.625 231.562 138.719 235.125 142.906C238.688 147.073 240.469 152.875 240.469 160.312C240.469 167.729 238.688 173.573 235.125 177.844C231.562 182.115 226.729 184.25 220.625 184.25ZM216 170.562C217.167 172.896 218.708 174.062 220.625 174.062C222.542 174.062 224.073 172.896 225.219 170.562C226.385 168.229 226.969 164.823 226.969 160.344C226.969 155.865 226.396 152.49 225.25 150.219C224.104 147.948 222.562 146.812 220.625 146.812C218.688 146.812 217.135 147.948 215.969 150.219C214.823 152.49 214.25 155.865 214.25 160.344C214.25 164.823 214.833 168.229 216 170.562ZM265.125 184.25C259 184.25 254.156 182.125 250.594 177.875C247.031 173.604 245.25 167.76 245.25 160.344C245.25 152.906 247.031 147.094 250.594 142.906C254.177 138.719 259.021 136.625 265.125 136.625C271.229 136.625 276.062 138.719 279.625 142.906C283.188 147.073 284.969 152.875 284.969 160.312C284.969 167.729 283.188 173.573 279.625 177.844C276.062 182.115 271.229 184.25 265.125 184.25ZM260.5 170.562C261.667 172.896 263.208 174.062 265.125 174.062C267.042 174.062 268.573 172.896 269.719 170.562C270.885 168.229 271.469 164.823 271.469 160.344C271.469 155.865 270.896 152.49 269.75 150.219C268.604 147.948 267.062 146.812 265.125 146.812C263.188 146.812 261.635 147.948 260.469 150.219C259.323 152.49 258.75 155.865 258.75 160.344C258.75 164.823 259.333 168.229 260.5 170.562ZM290.5 137.906H309.781C316.677 137.906 322.021 139.823 325.812 143.656C329.604 147.469 331.5 152.958 331.5 160.125C331.5 167.333 329.583 172.948 325.75 176.969C321.938 180.99 316.615 183 309.781 183H290.5V137.906ZM303.75 148.438V172.469H307.906C314.635 172.469 318 168.354 318 160.125C318 156.354 317.115 153.469 315.344 151.469C313.594 149.448 311.115 148.438 307.906 148.438H303.75Z" fill="black"/>
<line x1="277.142" y1="149.359" x2="255.359" y2="171.142" stroke="black" stroke-width="9.5"/>
<line x1="231.142" y1="149.359" x2="209.359" y2="171.142" stroke="black" stroke-width="9.5"/>
<line x1="91.142" y1="85.3588" x2="69.3589" y2="107.142" stroke="black" stroke-width="9.5"/>
<line x1="80.142" y1="21.3588" x2="58.3589" y2="43.1418" stroke="black" stroke-width="9.5"/>
<line x1="127.142" y1="21.3588" x2="105.359" y2="43.1418" stroke="black" stroke-width="9.5"/>
</svg>
